<svg xmlns="http://www.w3.org/2000/svg" viewBox="0 0 210 170">
<defs><linearGradient id="h" x2="1" y2="1"><stop stop-color="#bd7a3e"/><stop offset="1" stop-color="#74401f"/></linearGradient><linearGradient id="br"><stop stop-color="#f3d596"/><stop offset="1" stop-color="#b78345"/></linearGradient></defs>
<path d="M34 91c-18 0-27-12-27-25S18 41 37 41h84c17 0 30 11 30 25 0 8-4 15-10 20l55 40c10 8 11 23 2 32s-24 8-32-2l-50-56z" fill="url(#h)" stroke="#623417" stroke-width="6"/>
<rect x="23" y="83" width="105" height="45" rx="16" fill="#8c542d" stroke="#623417" stroke-width="5"/>
<path d="M31 126v29M45 127v32M59 127v30M73 127v33M87 127v29M101 126v32M115 124v28" stroke="url(#br)" stroke-width="8" stroke-linecap="round"/>
<ellipse cx="73" cy="67" rx="42" ry="12" fill="#d9a264" opacity=".45"/></svg>