<svg xmlns="http://www.w3.org/2000/svg" viewBox="0 0 180 210">
<defs><linearGradient id="c" x2="1" y2="1"><stop stop-color="#ffb43e"/><stop offset=".48" stop-color="#f47a24"/><stop offset="1" stop-color="#d64d18"/></linearGradient><linearGradient id="g" x2="1" y2="1"><stop stop-color="#75d56d"/><stop offset="1" stop-color="#248b42"/></linearGradient></defs>
<path d="M86 53C58 49 39 63 42 90c3 30 27 79 43 109 3 6 10 6 13 0 17-31 43-81 46-111 3-25-15-38-43-35z" fill="url(#c)" stroke="#bd4d1c" stroke-width="5"/>
<path d="M86 58C76 29 57 13 42 8c-4 23 7 45 30 58M95 57c0-32 11-49 26-57 10 23 4 44-14 64M100 58c18-26 39-34 55-31-2 23-19 38-43 43" fill="none" stroke="url(#g)" stroke-width="15" stroke-linecap="round"/>
<path d="M62 97l24 8M72 125l25 8M82 153l19 6" stroke="#c9541b" stroke-width="5" stroke-linecap="round" opacity=".7"/></svg>